<?xml version="1.0" encoding="UTF-8"?>
<svg version="1.1" xmlns="http://www.w3.org/2000/svg" width="500" height="500">
<path d="M0 0 C1.90625 2.1171875 1.90625 2.1171875 3.5 4.875 C4.08910156 5.87660156 4.67820312 6.87820312 5.28515625 7.91015625 C5.85105469 8.92980469 6.41695312 9.94945312 7 11 C7.74056641 12.32837891 7.74056641 12.32837891 8.49609375 13.68359375 C9.4745181 15.46809129 10.4442962 17.25735142 11.40625 19.05078125 C15.57772135 26.7700481 19.90608798 34.39078325 24.6875 41.75 C27.36564213 45.8883961 29.61063889 50.0932398 31.75390625 54.52734375 C34.68714032 60.34783643 38.24792957 65.82248959 41.75 71.3125 C47.86134399 81.1063205 48.33762098 93.04896437 46.5 104.3125 C43.64886904 115.25522095 36.84645413 125.52629971 30.87109375 134.984375 C29.12402189 137.80011503 27.50843073 140.6456525 25.9375 143.5625 C25.45925781 144.44550781 24.98101562 145.32851563 24.48828125 146.23828125 C23.43651261 148.18998842 22.3930328 150.14617322 21.35546875 152.10546875 C15.8009504 162.19889374 9.0326298 168.84481245 -1.77822876 173.09127808 C-5.31269472 174.08819762 -8.25419499 174.24069072 -11.92333984 174.22705078 C-12.91951828 174.22748886 -12.91951828 174.22748886 -13.93582153 174.22793579 C-16.11099737 174.22655261 -18.28582218 174.21103988 -20.4609375 174.1953125 C-21.97693698 174.19157876 -23.49293889 174.18873349 -25.00894165 174.18673706 C-28.98409782 174.17912902 -32.95910606 174.1595051 -36.9342041 174.1373291 C-40.9964803 174.11680948 -45.05878058 174.1077223 -49.12109375 174.09765625 C-57.08079678 174.07625631 -65.04037995 174.04215485 -73 174 C-72.98428955 174.96824707 -72.98428955 174.96824707 -72.96826172 175.95605469 C-72.92662728 178.88733002 -72.90065025 181.81854304 -72.875 184.75 C-72.85824219 185.76578125 -72.84148437 186.7815625 -72.82421875 187.828125 C-72.81455078 189.29765625 -72.81455078 189.29765625 -72.8046875 190.796875 C-72.78897705 192.14797363 -72.78897705 192.14797363 -72.77294922 193.52636719 C-73.01618007 196.17627581 -73.57060042 197.76840556 -75 200 C-77.84283421 201.42141711 -79.84907358 201.30354525 -83 201 C-85.33349609 199.37939453 -85.33349609 199.37939453 -87.5234375 197.1328125 C-88.31621094 196.32972656 -89.10898437 195.52664063 -89.92578125 194.69921875 C-91.13814453 193.42498047 -91.13814453 193.42498047 -92.375 192.125 C-93.20644531 191.28324219 -94.03789062 190.44148437 -94.89453125 189.57421875 C-101 183.3083436 -101 183.3083436 -101 181 C-101.56203125 180.7628125 -102.1240625 180.525625 -102.703125 180.28125 C-105.51894042 178.71052303 -107.47955416 176.78528536 -109.75 174.5 C-110.54921875 173.7059375 -111.3484375 172.911875 -112.171875 172.09375 C-114 170 -114 170 -114 168 C-114.66 168 -115.32 168 -116 168 C-116 167.34 -116 166.68 -116 166 C-116.86625 165.62875 -116.86625 165.62875 -117.75 165.25 C-120.32939979 163.81700012 -122.06121592 162.21575324 -124 160 C-124 159.34 -124 158.68 -124 158 C-124.66 158 -125.32 158 -126 158 C-126 157.34 -126 156.68 -126 156 C-126.66 156 -127.32 156 -128 156 C-128 155.34 -128 154.68 -128 154 C-128.66 154 -129.32 154 -130 154 C-130 153.34 -130 152.68 -130 152 C-130.66 152 -131.32 152 -132 152 C-132 151.34 -132 150.68 -132 150 C-132.66 150 -133.32 150 -134 150 C-134.51072157 146.43905575 -134.78800738 144.19818075 -132.77154541 141.1321106 C-130.94568457 139.10270823 -129.04266085 137.20386868 -127.0703125 135.31640625 C-126.36478241 134.61603745 -125.65925232 133.91566864 -124.93234253 133.19407654 C-123.44232039 131.72116536 -121.94397652 130.25663138 -120.43798828 128.80004883 C-118.12438805 126.56190801 -115.83589274 124.30038928 -113.55078125 122.03320312 C-112.10034939 120.6053564 -110.6485719 119.17887501 -109.1953125 117.75390625 C-108.16085495 116.73690392 -108.16085495 116.73690392 -107.10549927 115.69935608 C-106.46498627 115.08128586 -105.82447327 114.46321564 -105.16455078 113.82641602 C-104.31849777 113.00537132 -104.31849777 113.00537132 -103.45535278 112.16773987 C-102 111 -102 111 -100 111 C-100 110.34 -100 109.68 -100 109 C-97.625 106.375 -97.625 106.375 -95 104 C-94.34 104 -93.68 104 -93 104 C-93 103.34 -93 102.68 -93 102 C-92.34 102 -91.68 102 -91 102 C-90.34 100.68 -89.68 99.36 -89 98 C-88.34 98 -87.68 98 -87 98 C-86.71125 97.38125 -86.4225 96.7625 -86.125 96.125 C-85 94 -85 94 -83 92 C-79.5625 91.625 -79.5625 91.625 -76 92 C-73 96 -73 96 -73 117 C-49.24 117 -25.48 117 -1 117 C-2.98 113.535 -2.98 113.535 -5 110 C-5 109.01 -5 108.02 -5 107 C-5.66 107 -6.32 107 -7 107 C-13 96 -13 96 -14.31030273 93.57177734 C-18.01881527 86.7219871 -21.87583994 79.97090079 -25.8125 73.25 C-26.41980957 72.20884033 -27.02711914 71.16768066 -27.65283203 70.0949707 C-30.37002737 65.44622737 -33.1006719 60.80850362 -35.91015625 56.21484375 C-36.33256592 55.52293945 -36.75497559 54.83103516 -37.19018555 54.11816406 C-37.95762418 52.86761703 -38.73087404 51.62061016 -39.51098633 50.37792969 C-41.1812589 47.66006151 -42 46.26138322 -42 43 C-42.66 43 -43.32 43 -44 43 C-45.0384211 41.28133783 -46.05514635 39.54955402 -47.0625 37.8125 C-47.63097656 36.84957031 -48.19945312 35.88664062 -48.78515625 34.89453125 C-50.13815174 31.67083459 -50.04769518 30.27479579 -49 27 C-48.01 26.67 -47.02 26.34 -46 26 C-46 25.34 -46 24.68 -46 24 C-45.48953125 23.731875 -44.9790625 23.46375 -44.453125 23.1875 C-38.8341091 20.15881058 -33.5528342 16.7636617 -28.265625 13.19140625 C-24.72391002 10.81472909 -21.15110264 8.49246341 -17.5625 6.1875 C-16.98346924 5.81463867 -16.40443848 5.44177734 -15.80786133 5.05761719 C-14.20930484 4.03204917 -12.60479916 3.01577175 -11 2 C-10.16339844 1.39800781 -9.32679688 0.79601562 -8.46484375 0.17578125 C-5.14285301 -1.40887677 -3.45910756 -1.18093188 0 0 Z " fill="#293F6F" transform="translate(374,209)"/>
<path d="M0 0 C1.26978699 -0.00902847 2.53957397 -0.01805695 3.84783936 -0.02735901 C6.52744745 -0.04182665 9.20663031 -0.05153392 11.88623047 -0.05444336 C15.28645141 -0.05981368 18.68547681 -0.09746993 22.08536148 -0.14318752 C25.36933369 -0.18044193 28.6533452 -0.18148825 31.9375 -0.1875 C33.74278168 -0.21679848 33.74278168 -0.21679848 35.58453369 -0.24668884 C46.43729187 -0.18955561 55.95411027 2.74450017 63.92578125 10.3515625 C68.81481605 15.81080871 76.734375 24.76580077 76.734375 32.37109375 C77.394375 32.37109375 78.054375 32.37109375 78.734375 32.37109375 C78.734375 33.36109375 78.734375 34.35109375 78.734375 35.37109375 C79.394375 35.37109375 80.054375 35.37109375 80.734375 35.37109375 C84.734375 41.99609375 84.734375 41.99609375 84.734375 45.37109375 C85.394375 45.37109375 86.054375 45.37109375 86.734375 45.37109375 C87.29705078 46.42296875 87.29705078 46.42296875 87.87109375 47.49609375 C90.97723197 53.25457669 94.20158335 58.86409501 97.734375 64.37109375 C100.209375 63.87609375 100.209375 63.87609375 102.734375 63.37109375 C102.734375 62.71109375 102.734375 62.05109375 102.734375 61.37109375 C105.28741215 59.83207135 107.84977435 58.31514182 110.421875 56.80859375 C111.14310547 56.37095703 111.86433594 55.93332031 112.60742188 55.48242188 C118.03897542 52.33261685 118.03897542 52.33261685 121.62890625 52.53125 C123.734375 53.37109375 123.734375 53.37109375 125.734375 54.37109375 C126.07838631 60.33395643 125.13473149 65.21712569 123.58984375 70.96875 C122.64563048 74.72404569 121.91929272 78.4998162 121.234375 82.30859375 C120.36885595 87.08915517 119.42930854 91.83297919 118.296875 96.55859375 C116.6972702 103.25013426 115.4591379 109.99969217 114.26782227 116.77416992 C111.30367563 133.02088966 111.30367563 133.02088966 106.734375 136.37109375 C100.10090425 136.90657488 93.40047698 134.59440369 87.171875 132.55859375 C79.23306261 130.03625614 71.27176479 127.6496209 63.2578125 125.37890625 C61.3951996 124.84763669 59.53265118 124.31614101 57.67016602 123.78442383 C54.86457685 122.98356146 52.05817356 122.18674492 49.24777222 121.40292358 C46.59002879 120.66070814 43.93738976 119.90225842 41.28515625 119.140625 C40.48189911 118.92097076 39.67864197 118.70131653 38.8510437 118.4750061 C34.53235834 117.21723549 31.51640694 116.13154831 28.734375 112.37109375 C28.42578125 109.48828125 28.42578125 109.48828125 29.734375 106.37109375 C32.48204243 104.00370777 35.52043001 102.27346043 38.671875 100.49609375 C39.50912109 99.99851562 40.34636719 99.5009375 41.20898438 98.98828125 C47.38503391 95.37109375 47.38503391 95.37109375 49.734375 95.37109375 C45.58017776 86.6228431 40.84255842 78.3960533 35.80419922 70.13916016 C34.28743701 67.63245273 32.82315964 65.09652251 31.359375 62.55859375 C28.28538943 57.26410567 25.11406017 52.03231086 21.921875 46.80859375 C21.44121582 46.02186279 20.96055664 45.23513184 20.46533203 44.42456055 C18.59598862 41.37368858 16.71950187 38.34878405 14.734375 35.37109375 C14.11691406 36.42425781 13.49945313 37.47742188 12.86328125 38.5625 C12.00794701 40.01961022 11.15246735 41.47663507 10.296875 42.93359375 C9.84965088 43.69559082 9.40242676 44.45758789 8.94165039 45.24267578 C6.68198975 49.08580922 4.41030806 52.92049486 2.1015625 56.734375 C1.69220459 57.41105225 1.28284668 58.08772949 0.86108398 58.78491211 C0.08193166 60.06984962 -0.69971772 61.35327704 -1.48413086 62.63500977 C-3.04045167 65.20228009 -4.31216883 67.51072524 -5.265625 70.37109375 C-5.925625 70.37109375 -6.585625 70.37109375 -7.265625 70.37109375 C-7.39662598 70.95826172 -7.52762695 71.54542969 -7.66259766 72.15039062 C-10.65109485 83.15580378 -18.75157642 93.67809335 -24.50439453 103.39550781 C-25.6108868 105.26491837 -26.71394673 107.13636917 -27.81201172 109.01074219 C-29.13605826 111.26503968 -30.47803308 113.50732709 -31.828125 115.74609375 C-32.20855957 116.39900391 -32.58899414 117.05191406 -32.98095703 117.72460938 C-35.29746267 121.50087311 -36.94425346 123.2962548 -41.265625 124.37109375 C-43.77124023 123.48242188 -43.77124023 123.48242188 -46.38671875 121.90234375 C-47.82893799 121.0515625 -47.82893799 121.0515625 -49.30029297 120.18359375 C-50.27885254 119.58546875 -51.25741211 118.98734375 -52.265625 118.37109375 C-54.10985842 117.29677049 -55.95489775 116.22382939 -57.80078125 115.15234375 C-59.64437197 114.06052112 -61.48682048 112.96676754 -63.328125 111.87109375 C-64.70194336 111.05705078 -64.70194336 111.05705078 -66.10351562 110.2265625 C-67.92474884 109.14645391 -69.74373394 108.06254448 -71.56030273 106.97460938 C-73.40526034 105.8810545 -75.26223067 104.80757693 -77.12915039 103.75195312 C-78.03270264 103.23439453 -78.93625488 102.71683594 -79.8671875 102.18359375 C-80.6813916 101.72597656 -81.4955957 101.26835937 -82.33447266 100.796875 C-84.265625 99.37109375 -84.265625 99.37109375 -85.578125 95.87109375 C-85.23581737 92.03724832 -84.25885452 89.63999016 -82.265625 86.37109375 C-81.605625 86.37109375 -80.945625 86.37109375 -80.265625 86.37109375 C-80.1728125 85.83613281 -80.08 85.30117187 -79.984375 84.75 C-79.03648775 81.61269926 -77.45990733 79.11040899 -75.765625 76.30859375 C-73.16420059 72.00244639 -73.16420059 72.00244639 -71.265625 67.37109375 C-70.605625 67.37109375 -69.945625 67.37109375 -69.265625 67.37109375 C-69.08012085 66.49408813 -69.08012085 66.49408813 -68.89086914 65.59936523 C-68.26203739 63.35830808 -67.44993946 61.71178375 -66.26171875 59.71875 C-65.85429443 59.03055176 -65.44687012 58.34235352 -65.02709961 57.63330078 C-64.59018799 56.90739746 -64.15327637 56.18149414 -63.703125 55.43359375 C-63.03518921 54.30993408 -63.03518921 54.30993408 -62.35375977 53.16357422 C-58.8968048 47.36644133 -55.35582244 41.62311784 -51.76171875 35.91015625 C-50.15338963 33.38298255 -50.15338963 33.38298255 -49.265625 30.37109375 C-48.605625 30.37109375 -47.945625 30.37109375 -47.265625 30.37109375 C-47.16507813 29.83097656 -47.06453125 29.29085937 -46.9609375 28.734375 C-44.29953878 19.6886097 -37.93084948 10.54769638 -29.66015625 5.91015625 C-19.68541891 1.14979884 -10.94756263 0.04845463 0 0 Z " fill="#293F6F" transform="translate(231.265625,77.62890625)"/>
<path d="M0 0 C2.88674431 2.14813535 3.59712358 4.29692567 4.4296875 7.7265625 C4.66510254 8.66749756 4.90051758 9.60843262 5.14306641 10.57788086 C5.38460449 11.58343018 5.62614258 12.58897949 5.875 13.625 C6.39885632 15.72320307 6.92491556 17.82085732 7.453125 19.91796875 C7.71287109 20.95356934 7.97261719 21.98916992 8.24023438 23.05615234 C9.27039613 27.0476981 10.42889898 30.99308081 11.625 34.9375 C13.65037305 41.66921733 15.43114888 48.4377646 17.0859375 55.26953125 C17.66886286 57.64856423 18.27581426 60.0219272 18.9140625 62.38671875 C20.44533927 68.08965141 21.54751589 73.08682835 21 79 C19 81 19 81 16.5 81.5 C11.2136877 80.74481253 7.44218715 77.83405771 3 75 C-0.81266343 72.75566627 -0.81266343 72.75566627 -5 72 C-9.45058529 78.13423779 -12.72473291 85.18860385 -16 92 C-16.66 92 -17.32 92 -18 92 C-18.12294434 92.5787085 -18.24588867 93.15741699 -18.37255859 93.75366211 C-19.01589664 96.05691246 -19.87784285 97.85541783 -21.0390625 99.94140625 C-21.45542969 100.69099609 -21.87179688 101.44058594 -22.30078125 102.21289062 C-22.73777344 102.98826172 -23.17476562 103.76363281 -23.625 104.5625 C-24.03878906 105.31080078 -24.45257813 106.05910156 -24.87890625 106.83007812 C-27.34660038 111.24417537 -29.95247076 115.54390377 -32.67724609 119.80444336 C-33.30134369 120.78142685 -33.92544128 121.75841034 -34.56845093 122.76499939 C-35.27706772 123.87132469 -35.27706772 123.87132469 -36 125 C-34.84599197 125.01030746 -33.69198395 125.02061493 -32.50300598 125.03123474 C-21.62927989 125.12897737 -10.75561092 125.23171234 0.11802197 125.33933926 C5.70830012 125.3945111 11.29858357 125.44792196 16.88891602 125.49731445 C22.28355235 125.5450426 27.67812591 125.5973885 33.07268715 125.65294075 C35.13115183 125.67332601 37.18963371 125.69204536 39.24812889 125.70907402 C42.13057035 125.7332028 45.01289389 125.76324579 47.89526367 125.79467773 C49.17272713 125.80331093 49.17272713 125.80331093 50.47599792 125.81211853 C54.44345938 125.861317 58.12706064 126.02288213 62 127 C62.94478761 129.83436284 63.1607997 131.73569433 63.23706055 134.68334961 C63.26346115 135.63120834 63.28986176 136.57906708 63.31706238 137.5556488 C63.34004898 138.57755814 63.36303558 139.59946747 63.38671875 140.65234375 C63.41224319 141.70402237 63.43776764 142.75570099 63.46406555 143.83924866 C63.51608066 146.06424304 63.56550678 148.28929922 63.61254883 150.5144043 C63.68713369 153.92077032 63.77779324 157.32646948 63.86914062 160.73242188 C63.91765653 162.89320717 63.96521451 165.05401423 64.01171875 167.21484375 C64.05530769 168.7446714 64.05530769 168.7446714 64.09977722 170.30540466 C64.11672134 171.25641556 64.13366547 172.20742645 64.15112305 173.18725586 C64.17031296 174.02203964 64.18950287 174.85682343 64.20927429 175.71690369 C63.97241465 178.30094485 63.40453575 179.82509354 62 182 C58.23918419 184.50721054 55.27884311 184.28853277 50.92358398 184.2746582 C50.10040176 184.27976913 49.27721954 184.28488007 48.42909241 184.29014587 C45.7013526 184.30406987 42.97386493 184.30308189 40.24609375 184.30078125 C38.34619554 184.3046689 36.4462982 184.30900371 34.54640198 184.31376648 C30.55751739 184.32123637 26.56872128 184.3209335 22.57983398 184.31567383 C17.48804705 184.30990232 12.3966266 184.32675011 7.30490017 184.3500185 C3.37644866 184.36481759 -0.55191609 184.36561875 -4.48039055 184.36250877 C-6.35611632 184.36301969 -8.23184724 184.3682139 -10.10754585 184.37832069 C-22.1912739 184.43539942 -32.17274089 183.9834853 -43 178 C-43 177.34 -43 176.68 -43 176 C-43.70125 175.814375 -44.4025 175.62875 -45.125 175.4375 C-55.66013813 170.16993093 -61.49643868 154.94050512 -67.140625 145.1796875 C-68.8967411 142.1765814 -70.68860531 139.19853508 -72.4921875 136.22387695 C-81.0006775 122.17339867 -86.05734798 110.67309096 -84 94 C-82.62104709 89.51840306 -80.55399636 85.91250506 -78 82 C-77.37351562 80.96875 -76.74703125 79.9375 -76.1015625 78.875 C-74.77482746 76.69349099 -73.43209784 74.52163581 -72.07421875 72.359375 C-69.58930048 68.33483693 -67.26475096 64.23354097 -64.94555664 60.11230469 C-62.26478295 55.3822314 -59.36433663 50.82627222 -56.34765625 46.3046875 C-55.08893004 44.15208325 -54.44353393 42.43662944 -54 40 C-54.85078125 39.7525 -55.7015625 39.505 -56.578125 39.25 C-60.27205508 37.90061915 -63.44840908 36.09480252 -66.75 34 C-67.32621094 33.64421875 -67.90242188 33.2884375 -68.49609375 32.921875 C-70.89475039 31.42341351 -72.99356126 30.00643874 -75 28 C-74.625 24.375 -74.625 24.375 -74 21 C-65.04639625 17.57747424 -55.93062676 14.79286396 -46.75 12.0625 C-37.23676377 9.22865371 -27.77271911 6.31273876 -18.37597656 3.11108398 C-11.98088788 1.0063654 -6.7139986 -0.55949988 0 0 Z " fill="#2A406F" transform="translate(162,201)"/>
<path d="M0 0 C2 3 2 3 1.9375 6 C1 9 1 9 -1.375 10.875 C-4 12 -4 12 -7 12 C-7.33 12.99 -7.66 13.98 -8 15 C-9.61949011 12.42786866 -10.04408751 11.32330841 -9.625 8.25 C-9.41875 7.5075 -9.2125 6.765 -9 6 C-8.01 5.67 -7.02 5.34 -6 5 C-6 4.34 -6 3.68 -6 3 C-4.02 2.01 -2.04 1.02 0 0 Z " fill="#3D4E78" transform="translate(334,230)"/>
<path d="M0 0 C1.62723299 0.45034123 3.25173664 0.91055354 4.875 1.375 C5.77992188 1.63023437 6.68484375 1.88546875 7.6171875 2.1484375 C10 3 10 3 12 5 C12.99 5 13.98 5 15 5 C17.625 5.8125 17.625 5.8125 20 7 C20.33 7.99 20.66 8.98 21 10 C20 11 20 11 17.5625 11.4375 C13.01133234 10.87858467 10.23390831 8.97593386 6.4140625 6.53515625 C3.68408145 4.79910034 0.91976986 3.38304888 -2 2 C-1.34 1.34 -0.68 0.68 0 0 Z " fill="#3E4F76" transform="translate(161,271)"/>
<path d="M0 0 C-3 2 -3 2 -6 3 C-6.73323796 5.01508358 -6.73323796 5.01508358 -7 7 C-9.64 7.33 -12.28 7.66 -15 8 C-15.33 7.34 -15.66 6.68 -16 6 C-17.98 6.33 -19.96 6.66 -22 7 C-22.33 6.34 -22.66 5.68 -23 5 C-19.92209798 3.96225878 -16.83699754 2.94783083 -13.75 1.9375 C-12.87730469 1.64294922 -12.00460938 1.34839844 -11.10546875 1.04492188 C-10.26113281 0.77099609 -9.41679688 0.49707031 -8.546875 0.21484375 C-7.77182617 -0.04176025 -6.99677734 -0.29836426 -6.19824219 -0.56274414 C-3.77358397 -1.04503677 -2.32152179 -0.7792359 0 0 Z " fill="#3D4F76" transform="translate(119,214)"/>
<path d="M0 0 C0.99 0 1.98 0 3 0 C3.061875 0.61875 3.12375 1.2375 3.1875 1.875 C3.82670777 4.20205157 3.82670777 4.20205157 6.1875 5.3125 C9.4644831 6.11354031 11.73981048 5.75818361 15 5 C14.625 6.9375 14.625 6.9375 14 9 C10.93772154 10.53113923 9.42801806 10.57133634 6 10 C3.05343076 7.57808967 0.51600148 4.86083417 -2 2 C-1.34 1.34 -0.68 0.68 0 0 Z " fill="#57638B" transform="translate(285,400)"/>
<path d="M0 0 C-1.95216435 1.95216435 -3.53199953 2.84826645 -6 4 C-6 4.99 -6 5.98 -6 7 C-5.01 6.67 -4.02 6.34 -3 6 C-2.67 5.34 -2.34 4.68 -2 4 C-1.34 4 -0.68 4 0 4 C0.66 6.31 1.32 8.62 2 11 C0.3125 11.75 0.3125 11.75 -2 12 C-4.8125 10.5 -4.8125 10.5 -7 8 C-7.0625 4.375 -7.0625 4.375 -6 1 C-3.56217182 -0.88735085 -2.80901846 -1.40450923 0 0 Z " fill="#546688" transform="translate(94,221)"/>
<path d="M0 0 C1 3 1 3 0 8 C-4.95 9.485 -4.95 9.485 -10 11 C-6.77932365 7.19374613 -3.59755203 3.45918464 0 0 Z " fill="#404F78" transform="translate(260,332)"/>
<path d="M0 0 C-0.33 2.64 -0.66 5.28 -1 8 C-1.66 7.67 -2.32 7.34 -3 7 C-3 6.34 -3 5.68 -3 5 C-3.66 5 -4.32 5 -5 5 C-5 4.34 -5 3.68 -5 3 C-5.66 3 -6.32 3 -7 3 C-7 2.34 -7 1.68 -7 1 C-7.66 0.67 -8.32 0.34 -9 0 C-3.375 -1.125 -3.375 -1.125 0 0 Z " fill="#42527B" transform="translate(253,362)"/>
<path d="M0 0 C0.99 0 1.98 0 3 0 C4.640625 2.1171875 4.640625 2.1171875 6.25 4.875 C6.79140625 5.77992188 7.3328125 6.68484375 7.890625 7.6171875 C8.25671875 8.40351563 8.6228125 9.18984375 9 10 C8.67 10.66 8.34 11.32 8 12 C6.125 11.8125 6.125 11.8125 4 11 C2.875 8.8125 2.875 8.8125 2 6 C1.62875 4.906875 1.2575 3.81375 0.875 2.6875 C0.58625 1.800625 0.2975 0.91375 0 0 Z " fill="#42527A" transform="translate(376,217)"/>
<path d="M0 0 C1.9375 0.8125 1.9375 0.8125 4 2 C4.33 2.99 4.66 3.98 5 5 C3.6875 7.1875 3.6875 7.1875 2 9 C1.34 9 0.68 9 0 9 C-1.125 2.25 -1.125 2.25 0 0 Z " fill="#3D4D77" transform="translate(147,168)"/>
<path d="M0 0 C7 8.44827586 7 8.44827586 7 12 C5.68 12.33 4.36 12.66 3 13 C0.78145293 8.37802694 -0.38281159 5.23175837 0 0 Z " fill="#4C5881" transform="translate(393,243)"/>
<path d="M0 0 C0.66 0.33 1.32 0.66 2 1 C-1.44615385 7.76923077 -1.44615385 7.76923077 -4.25 8.9375 C-4.8275 8.958125 -5.405 8.97875 -6 9 C-5.8125 6.1875 -5.8125 6.1875 -5 3 C-2.5625 1.0625 -2.5625 1.0625 0 0 Z " fill="#4E5A7E" transform="translate(266,181)"/>
<path d="M0 0 C2 3 2 3 1.625 5.1875 C1.41875 5.785625 1.2125 6.38375 1 7 C0.34 7 -0.32 7 -1 7 C-1 7.66 -1 8.32 -1 9 C-2.62626404 10.38232443 -4.2925002 11.71937515 -6 13 C-6 9.30581799 -4.71820705 7.22163822 -3 4 C-2.34 4 -1.68 4 -1 4 C-0.67 2.68 -0.34 1.36 0 0 Z " fill="#535F82" transform="translate(185,104)"/>
<path d="M0 0 C0.66 0 1.32 0 2 0 C2.23268915 6.28260706 1.40454548 11.88019467 0 18 C-0.33 18 -0.66 18 -1 18 C-2.04559253 11.41276707 -1.83292414 6.40766041 0 0 Z " fill="#536180" transform="translate(355,132)"/>
<path d="M0 0 C1.65 0 3.3 0 5 0 C5.33 0.66 5.66 1.32 6 2 C4.02 4.64 2.04 7.28 0 10 C-0.66 9.34 -1.32 8.68 -2 8 C-1.525625 7.566875 -1.05125 7.13375 -0.5625 6.6875 C1.23686957 4.97690387 1.23686957 4.97690387 2 2 C1.34 2 0.68 2 0 2 C0 1.34 0 0.68 0 0 Z " fill="#42547C" transform="translate(387,363)"/>
<path d="M0 0 C0.99 0.33 1.98 0.66 3 1 C2.01 1.33 1.02 1.66 0 2 C0.33 3.32 0.66 4.64 1 6 C0.01 5.67 -0.98 5.34 -2 5 C-2 6.32 -2 7.64 -2 9 C-3.32 8.67 -4.64 8.34 -6 8 C-6 7.01 -6 6.02 -6 5 C-5.34 5 -4.68 5 -4 5 C-3.67 4.01 -3.34 3.02 -3 2 C-2.01 1.34 -1.02 0.68 0 0 Z " fill="#213760" transform="translate(94,220)"/>
<path d="M0 0 C-1.875 2.625 -1.875 2.625 -5 5 C-8.48555794 4.84567759 -11.67181395 4.01461206 -15 3 C-15 2.67 -15 2.34 -15 2 C-9.75614911 0.2520497 -5.52677733 -0.19392201 0 0 Z " fill="#58678A" transform="translate(162,201)"/>
<path d="M0 0 C0.93423645 3.01031744 1.04449911 3.86650268 0 7 C-1.8125 7.625 -1.8125 7.625 -4 8 C-5.33489745 8.32701327 -6.66849245 8.65944671 -8 9 C-7.04270084 7.87411986 -6.08412105 6.7493285 -5.125 5.625 C-4.59132813 4.99851562 -4.05765625 4.37203125 -3.5078125 3.7265625 C-2.38567993 2.44163349 -1.20628025 1.20628025 0 0 Z " fill="#5B678E" transform="translate(269,323)"/>
<path d="M0 0 C1.46726798 3.81489674 0.43336419 6.29011622 -1 10 C-2.32 10 -3.64 10 -5 10 C-3.66511872 6.40608886 -2.03977277 3.24509304 0 0 Z " fill="#4D597D" transform="translate(94,267)"/>
<path d="M0 0 C0.33 0.66 0.66 1.32 1 2 C1.66 2.33 2.32 2.66 3 3 C1.1875 6 1.1875 6 -1 9 C-1.99 9 -2.98 9 -4 9 C-3.35455571 5.51460083 -1.89865603 2.97180943 0 0 Z " fill="#4B587E" transform="translate(102,253)"/>
<path d="M0 0 C0.66 0 1.32 0 2 0 C3.29243536 4.1196377 4.26252625 7.66831683 4 12 C2.25728062 9.702779 0.60088848 7.40133271 -1 5 C-0.625 2.3125 -0.625 2.3125 0 0 Z " fill="#4B5B7F" transform="translate(265,138)"/>
<path d="M0 0 C-0.375 1.9375 -0.375 1.9375 -1 4 C-3.70879335 5.35439668 -6.00933268 5.06501451 -9 5 C-9 4.01 -9 3.02 -9 2 C-2.25 0 -2.25 0 0 0 Z " fill="#4D5B7B" transform="translate(300,405)"/>
<path d="M0 0 C0.33 0.66 0.66 1.32 1 2 C1.66 2.33 2.32 2.66 3 3 C1.375 4.625 1.375 4.625 -1 6 C-4.49900021 5.23021995 -6.456333 4.543667 -9 2 C-6.36 2 -3.72 2 -1 2 C-0.67 1.34 -0.34 0.68 0 0 Z " fill="#5E678B" transform="translate(193,196)"/>
<path d="M0 0 C2.72426311 2.35277269 3.8141763 4.62496331 5 8 C4.01 8.66 3.02 9.32 2 10 C1.71125 9.236875 1.4225 8.47375 1.125 7.6875 C0.03730987 4.84970692 0.03730987 4.84970692 -2 2 C-1.34 1.34 -0.68 0.68 0 0 Z " fill="#45567D" transform="translate(323,134)"/>
<path d="M0 0 C0 2.97 0 5.94 0 9 C-0.99 8.67 -1.98 8.34 -3 8 C-3.33 6.02 -3.66 4.04 -4 2 C-1 0 -1 0 0 0 Z " fill="#405078" transform="translate(95,334)"/>
<path d="M0 0 C1.65 0 3.3 0 5 0 C2.34345343 3.73884332 0.41889613 5.64978174 -4 7 C-3.6875 5.0625 -3.6875 5.0625 -3 3 C-2.01 2.67 -1.02 2.34 0 2 C0 1.34 0 0.68 0 0 Z " fill="#43517E" transform="translate(274,318)"/>
<path d="M0 0 C0.66 0.66 1.32 1.32 2 2 C1.65922921 9.15618661 1.65922921 9.15618661 -0.5625 12 C-1.036875 12.33 -1.51125 12.66 -2 13 C-2.16682272 8.07872966 -2.24828052 4.49656104 0 0 Z " fill="#505E7D" transform="translate(341,200)"/>
<path d="M0 0 C2.64 0.33 5.28 0.66 8 1 C8 1.66 8 2.32 8 3 C8.99 3.33 9.98 3.66 11 4 C7.69564916 5.12377697 5.9493138 4.89554742 2.75 3.5625 C2.04359375 3.27503906 1.3371875 2.98757813 0.609375 2.69140625 C0.07828125 2.46324219 -0.4528125 2.23507812 -1 2 C-0.67 1.34 -0.34 0.68 0 0 Z " fill="#596988" transform="translate(124,379)"/>
<path d="M0 0 C0.66 0 1.32 0 2 0 C3.32 2.64 4.64 5.28 6 8 C5.34 8.66 4.68 9.32 4 10 C4 8.68 4 7.36 4 6 C2.35 5.67 0.7 5.34 -1 5 C-0.67 3.35 -0.34 1.7 0 0 Z " fill="#4B5778" transform="translate(387,234)"/>
<path d="M0 0 C0 3 0 3 -1 5 C-0.34 5.33 0.32 5.66 1 6 C-0.2065625 6.6496875 -0.2065625 6.6496875 -1.4375 7.3125 C-4.27846354 8.80474002 -4.27846354 8.80474002 -5 12 C-5.66 12 -6.32 12 -7 12 C-5.44298069 7.32894208 -2.91552627 3.91294315 0 0 Z " fill="#626E90" transform="translate(194,90)"/>
<path d="M0 0 C-0.75 1.9375 -0.75 1.9375 -2 4 C-4.125 4.75 -4.125 4.75 -6 5 C-6.33 3.35 -6.66 1.7 -7 0 C-3.98968256 -0.93423645 -3.13349732 -1.04449911 0 0 Z " fill="#394B77" transform="translate(335,245)"/>
<path d="M0 0 C0.33 0 0.66 0 1 0 C1.3125 2.75 1.3125 2.75 1 6 C-1.5 8.375 -1.5 8.375 -4 10 C-4.33 9.01 -4.66 8.02 -5 7 C-4.67 6.34 -4.34 5.68 -4 5 C-3.34 5 -2.68 5 -2 5 C-2 4.01 -2 3.02 -2 2 C-1.34 2 -0.68 2 0 2 C0 1.34 0 0.68 0 0 Z " fill="#263866" transform="translate(342,196)"/>
<path d="M0 0 C5.53846154 0.49230769 5.53846154 0.49230769 7.875 3.0625 C8.431875 4.0215625 8.431875 4.0215625 9 5 C8.67 5.66 8.34 6.32 8 7 C6.68 6.34 5.36 5.68 4 5 C4 4.01 4 3.02 4 2 C2.68 2 1.36 2 0 2 C0 1.34 0 0.68 0 0 Z " fill="#616C87" transform="translate(368,208)"/>
<path d="M0 0 C3.63 0 7.26 0 11 0 C11.33 1.32 11.66 2.64 12 4 C6.06 2.515 6.06 2.515 0 1 C0 0.67 0 0.34 0 0 Z " fill="#5D6886" transform="translate(301,204)"/>
<path d="M0 0 C2 3 2 3 1.875 5.0625 C0.7413007 7.57283417 -0.48618938 8.02691202 -3 9 C-2.44271087 5.65626525 -1.64826111 2.96687001 0 0 Z " fill="#3C4B6F" transform="translate(106,246)"/>
<path d="M0 0 C0.66 0.99 1.32 1.98 2 3 C-4.625 6.125 -4.625 6.125 -8 5 C-4.04 2.525 -4.04 2.525 0 0 Z " fill="#465477" transform="translate(343,224)"/>
<path d="M0 0 C1.32 0.66 2.64 1.32 4 2 C3.45276317 5.37462715 2.9451 7.08235 1 10 C1 8.02 1 6.04 1 4 C0.34 4 -0.32 4 -1 4 C-0.67 2.68 -0.34 1.36 0 0 Z " fill="#3F5279" transform="translate(219,147)"/>
<path d="M0 0 C0 0.66 0 1.32 0 2 C-2.76250036 3.38125018 -4.94731099 3.19079306 -8 3 C-8.66 2.34 -9.32 1.68 -10 1 C-6.52674819 -0.1577506 -3.63932552 -0.06866652 0 0 Z " fill="#646D8F" transform="translate(225,78)"/>
<path d="M0 0 C3.0916909 2.52956528 3.90931332 5.22454612 5 9 C4.34 9.66 3.68 10.32 3 11 C3 10.01 3 9.02 3 8 C2.34 8 1.68 8 1 8 C0.67 5.36 0.34 2.72 0 0 Z " fill="#586487" transform="translate(408,269)"/>
<path d="M0 0 C-0.33 0.99 -0.66 1.98 -1 3 C-5.75 4.125 -5.75 4.125 -8 3 C-8 2.34 -8 1.68 -8 1 C-5.10765685 0.17361624 -3.11257569 0 0 0 Z " fill="#3B4C70" transform="translate(136,208)"/>
<path d="M0 0 C3.63 0.66 7.26 1.32 11 2 C10.67 2.66 10.34 3.32 10 4 C6.7 3.34 3.4 2.68 0 2 C0 1.34 0 0.68 0 0 Z " fill="#4F5D7D" transform="translate(291,200)"/>
<path d="M0 0 C3 1 3 1 4.25 2.875 C5 5 5 5 4 8 C2.35 6.02 0.7 4.04 -1 2 C-0.67 1.34 -0.34 0.68 0 0 Z " fill="#5C6E8F" transform="translate(278,393)"/>
<path d="M0 0 C1.32 0 2.64 0 4 0 C4 0.66 4 1.32 4 2 C4.99 2 5.98 2 7 2 C7 3.65 7 5.3 7 7 C5 5.625 5 5.625 3 4 C3 3.34 3 2.68 3 2 C2.01 1.67 1.02 1.34 0 1 C0 0.67 0 0.34 0 0 Z " fill="#68728D" transform="translate(270,388)"/>
<path d="M0 0 C2 1 2 1 3.125 3.25 C4.00513321 6.01613295 4.1645438 8.12048351 4 11 C2 9.4375 2 9.4375 0 7 C-0.25 3.25 -0.25 3.25 0 0 Z " fill="#636F8E" transform="translate(416,283)"/>
<path d="M0 0 C2 2 2 2 2.1953125 3.9453125 C2.13020833 5.96354167 2.06510417 7.98177083 2 10 C0 7 0 7 0 5 C-0.66 4.67 -1.32 4.34 -2 4 C-2 3.01 -2 2.02 -2 1 C-1.34 0.67 -0.68 0.34 0 0 Z " fill="#445074" transform="translate(181,270)"/>
<path d="M0 0 C0.6875 1.8125 0.6875 1.8125 1 4 C-0.4375 5.75 -0.4375 5.75 -2 7 C-3.32 6.01 -4.64 5.02 -6 4 C-4.02 2.68 -2.04 1.36 0 0 Z " fill="#54648A" transform="translate(355,216)"/>
<path d="M0 0 C0.66 0.33 1.32 0.66 2 1 C1.34 1.66 0.68 2.32 0 3 C-0.16681109 6.08347826 -0.16681109 6.08347826 0 9 C-0.99 9 -1.98 9 -3 9 C-3.75 6.75 -3.75 6.75 -4 4 C-2.0625 1.6875 -2.0625 1.6875 0 0 Z " fill="#4E5F84" transform="translate(199,85)"/>
<path d="M0 0 C0.99 0.66 1.98 1.32 3 2 C2.01 3.32 1.02 4.64 0 6 C-1.32 5.34 -2.64 4.68 -4 4 C-2.68 2.68 -1.36 1.36 0 0 Z " fill="#233767" transform="translate(252,342)"/>
<path d="M0 0 C0.66 0 1.32 0 2 0 C0.55922954 3.36179774 -1.24750021 5.59156268 -4 8 C-4.66 8 -5.32 8 -6 8 C-6 7.34 -6 6.68 -6 6 C-5.34 6 -4.68 6 -4 6 C-4 5.34 -4 4.68 -4 4 C-3.34 4 -2.68 4 -2 4 C-1.34 2.68 -0.68 1.36 0 0 Z " fill="#566283" transform="translate(285,307)"/>
<path d="M0 0 C2.475 0.495 2.475 0.495 5 1 C5 3.64 5 6.28 5 9 C2.67527795 6.14693203 1.2491742 3.45925163 0 0 Z " fill="#5D688F" transform="translate(336,260)"/>
<path d="M0 0 C1.485 0.99 1.485 0.99 3 2 C3.6875 5.625 3.6875 5.625 4 9 C3.01 9.495 3.01 9.495 2 10 C1.34 6.7 0.68 3.4 0 0 Z " fill="#606B8A" transform="translate(162,202)"/>
<path d="M0 0 C0.33 0.99 0.66 1.98 1 3 C1.66 3.33 2.32 3.66 3 4 C1.68 5.32 0.36 6.64 -1 8 C-1 7.34 -1 6.68 -1 6 C-1.66 5.67 -2.32 5.34 -3 5 C-2.01 3.35 -1.02 1.7 0 0 Z " fill="#41527A" transform="translate(176,119)"/>
<path d="M0 0 C0.99 0 1.98 0 3 0 C2.67 1.32 2.34 2.64 2 4 C0.02 4.33 -1.96 4.66 -4 5 C-2.1875 2.5 -2.1875 2.5 0 0 Z " fill="#5E6D8B" transform="translate(291,301)"/>
<path d="M0 0 C2.31 0 4.62 0 7 0 C7.33 0.99 7.66 1.98 8 3 C6.35 3.33 4.7 3.66 3 4 C3 3.34 3 2.68 3 2 C2.01 1.34 1.02 0.68 0 0 Z " fill="#233363" transform="translate(155,202)"/>
<path d="M0 0 C1.0625 1.875 1.0625 1.875 2 4 C1.67 4.66 1.34 5.32 1 6 C0.34 5.67 -0.32 5.34 -1 5 C-1 5.66 -1 6.32 -1 7 C-1.66 7 -2.32 7 -3 7 C-2.67 5.35 -2.34 3.7 -2 2 C-1.34 2 -0.68 2 0 2 C0 1.34 0 0.68 0 0 Z " fill="#253966" transform="translate(155,158)"/>
<path d="M0 0 C2.72426311 2.35277269 3.8141763 4.62496331 5 8 C4.01 8 3.02 8 2 8 C2 6.68 2 5.36 2 4 C1.34 4 0.68 4 0 4 C0 2.68 0 1.36 0 0 Z " fill="#4C5C7E" transform="translate(403,261)"/>
<path d="M0 0 C0.33 0 0.66 0 1 0 C1.33 2.31 1.66 4.62 2 7 C1.01 7.66 0.02 8.32 -1 9 C-1 5.72724974 -0.70074844 3.153368 0 0 Z " fill="#4F6182" transform="translate(173,237)"/>
<path d="M0 0 C0.33 0.66 0.66 1.32 1 2 C1.66 2 2.32 2 3 2 C3 2.66 3 3.32 3 4 C3.99 4.33 4.98 4.66 6 5 C5.01 5.495 5.01 5.495 4 6 C1.5249829 4.88568235 -0.67883419 3.41849022 -3 2 C-2.01 1.34 -1.02 0.68 0 0 Z " fill="#586585" transform="translate(102,235)"/>
<path d="M0 0 C3.465 1.485 3.465 1.485 7 3 C7 3.99 7 4.98 7 6 C3.62496331 4.8141763 1.35277269 3.72426311 -1 1 C-0.67 0.67 -0.34 0.34 0 0 Z " fill="#505D7D" transform="translate(157,180)"/>
<path d="M0 0 C0.66 0.99 1.32 1.98 2 3 C1.34 3 0.68 3 0 3 C0.33 4.32 0.66 5.64 1 7 C-0.65 7.66 -2.3 8.32 -4 9 C-2.80100302 5.9168649 -1.52299523 2.93720508 0 0 Z " fill="#727C98" transform="translate(172,125)"/>
<path d="M0 0 C1.32 0 2.64 0 4 0 C3.34 1.98 2.68 3.96 2 6 C1.34 5.67 0.68 5.34 0 5 C0 3.35 0 1.7 0 0 Z " fill="#47547C" transform="translate(412,323)"/>
<path d="M0 0 C1.98 0.99 3.96 1.98 6 3 C5.34 3.66 4.68 4.32 4 5 C2.02 4.01 0.04 3.02 -2 2 C-1.34 1.34 -0.68 0.68 0 0 Z " fill="#4A577D" transform="translate(161,271)"/>
<path d="M0 0 C0.66 0 1.32 0 2 0 C2.625 3.375 2.625 3.375 3 7 C2.34 7.66 1.68 8.32 1 9 C0.67 6.03 0.34 3.06 0 0 Z " fill="#576386" transform="translate(176,252)"/>
<path d="M0 0 C1.875 0.125 1.875 0.125 4 1 C5.25 4.0625 5.25 4.0625 6 7 C5.01 7.495 5.01 7.495 4 8 C2 5 2 5 2 2 C1.34 2 0.68 2 0 2 C0 1.34 0 0.68 0 0 Z " fill="#546384" transform="translate(330,250)"/>
<path d="M0 0 C0.99 0 1.98 0 3 0 C5 3 5 3 5 6 C4.34 6 3.68 6 3 6 C0 2.53846154 0 2.53846154 0 0 Z " fill="#4C5B7F" transform="translate(376,217)"/>
<path d="M0 0 C0.66 0.33 1.32 0.66 2 1 C1.67 1.66 1.34 2.32 1 3 C1.66 3.33 2.32 3.66 3 4 C2.01 5.485 2.01 5.485 1 7 C0.34 7 -0.32 7 -1 7 C-0.67 4.69 -0.34 2.38 0 0 Z " fill="#4C597C" transform="translate(236,121)"/>
<path d="M0 0 C1.32 1.32 2.64 2.64 4 4 C3.67 4.99 3.34 5.98 3 7 C2.34 7 1.68 7 1 7 C0.67 4.69 0.34 2.38 0 0 Z " fill="#516186" transform="translate(296,90)"/>
</svg>
